# xmcd
#
# Track frame offsets:
#       150
#       29251
#       53371
#       82905
#       103436
#       130276
#       149200
#       167287
#       206001
#       237933
#
# Disc length: 3648 seconds
#
# Revision: 3
# Processed by: cddbd v1.5.2PL0 Copyright (c) Steve Scherf et al.
# Submitted via: FreeDbEdit v0.1
#
DISCID=860e3e0a
DTITLE=Various Artist - Acid Jazz Grooves [CD3]
DYEAR=2000
DGENRE=Acid Jazz
TTITLE0=Snowboy Feat. Noel McKoy - Lucky Fellow
TTITLE1=Vibraphonic Feat. Alison Limerick - Trust Me
TTITLE2=St. Margarets Collective - Summer Snack
TTITLE3=Meateaters - In the Thick of It
TTITLE4=The Easy Access Orchestra - Mr Magic
TTITLE5=Top Shelf - Bar Room Funk
TTITLE6=Kool G - The 'G' File
TTITLE7=No Paradise - Learning
TTITLE8=The Nigel Price 4Tet - Panic Attack
TTITLE9=Incredible Fatbuds - Meatfeast
EXTD=YEAR: 2000 ID3G: 74
EXTT0=
EXTT1=
EXTT2=
EXTT3=
EXTT4=
EXTT5=
EXTT6=
EXTT7=
EXTT8=
EXTT9=
PLAYORDER=
